<svg id="Layer_1" data-name="Layer 1" xmlns="http://www.w3.org/2000/svg" viewBox="0 0 612 760.1"><path d="M304.53,776.05c-11.18-.86-23.8-1.37-36.3-2.89A290.25,290.25,0,0,1,187,751.31c-9.28-4-18.26-8.77-27.41-13.11-1.65-.78-2.31-1.74-1.94-3.58,2.26-11.3,4.18-22.67,6.78-33.89,1.91-8.25,4.57-16.33,7.12-24.42,3.31-10.46,6.7-20.9,10.3-31.26,3.45-9.94,7.18-19.79,10.83-29.66,2.47-6.66,5-13.28,7.52-19.93.53-1.39,1.13-2.13,2.91-1.5,10.8,3.83,21.65,7.52,32.48,11.28,8.73,3,17.44,6.1,26.17,9.11,7.45,2.57,14.91,5.12,22.39,7.59,8.33,2.76,16.69,5.41,25,8.14,6.6,2.16,13.18,4.4,19.79,6.51,8,2.56,16.06,5,24.07,7.51,5,1.59,10,3.29,15.09,4.84,6.27,1.92,12.58,3.74,18.87,5.61,6,1.79,12,3.6,18,5.36q11.79,3.47,23.59,6.84c4.34,1.24,8.68,2.44,13.05,3.55a7.83,7.83,0,0,0,2.48-.17,7.74,7.74,0,0,0-1.21-2.22c-9-7.9-18.19-15.64-27.12-23.65-4.8-4.3-9.34-8.92-13.8-13.58-10.93-11.45-21.95-22.82-32.54-34.58-8.32-9.23-16.11-18.94-24-28.55-6.54-7.94-12.9-16-19.32-24.08-6.69-8.4-13.42-16.78-20-25.27-6.45-8.3-12.71-16.74-19.1-25.09q-7.62-10-15.37-19.81a4,4,0,0,1-.53-5,224.49,224.49,0,0,1,19.36-31.8c7.29-10,14.68-19.92,22.32-29.64,5-6.35,10.37-12.4,15.83-18.35,11.43-12.48,22.77-25.07,34.63-37.14,12.89-13.1,26.3-25.7,39.55-38.45,7.21-6.93,14.48-13.81,21.88-20.54,6.48-5.89,13.2-11.52,19.77-17.31a9.19,9.19,0,0,0,1.34-2,7.76,7.76,0,0,0-2.61-.15c-6,1.68-12.05,3.47-18.08,5.22-5.8,1.68-11.61,3.3-17.39,5-8.21,2.46-16.38,5-24.57,7.51-14.48,4.37-29,8.64-43.44,13.07-8.68,2.66-17.28,5.61-25.95,8.34-10.14,3.19-20.33,6.24-30.47,9.44-8.76,2.76-17.48,5.63-26.21,8.46-10.26,3.33-20.54,6.59-30.76,10-9.94,3.34-19.83,6.84-29.73,10.31-1.45.51-2.23.23-2.87-1.22-4.62-10.49-9.44-20.89-13.92-31.43-3.41-8-6.56-16.17-9.56-24.36-2.77-7.52-5.31-15.14-7.73-22.78q-5.14-16.28-9.93-32.66c-2.41-8.3-4.45-16.7-6.75-25-.66-2.35.17-3.51,2.18-4.71a308.19,308.19,0,0,1,78.8-33.49,252.38,252.38,0,0,1,40.86-7.87c9.17-.88,18.37-1.45,27.56-2.16,13.25-1,26.45-.12,39.63,1a295.86,295.86,0,0,1,75.86,17,306.38,306.38,0,0,1,171,154.88,273.52,273.52,0,0,1,17.42,45.24c3.1,11.21,5.82,22.56,7.88,34,1.88,10.41,2.76,21,3.9,31.53,1.73,16.13,1.21,32.29-.22,48.41A306.29,306.29,0,0,1,434.43,747.28a296.61,296.61,0,0,1-66,21.78,272,272,0,0,1-37.79,5.34Z" transform="translate(0 -15.95)"/><path d="M44.28,240.57c2.23-6.55,4.3-12.6,6.36-18.66q15.9-46.78,31.82-93.58Q95.14,91.13,107.87,54c4.09-12,8.21-23.91,12.22-35.9A2.59,2.59,0,0,1,123,16Q338,16,553.07,16c.68,0,1.35.06,2.47.12-1.11,2.69-2.07,5.15-3.13,7.56-4.64,10.61-8.94,21.38-15.78,30.9a129.55,129.55,0,0,1-31,30.37c-23.92,16.83-50.61,27.25-79,33.34A336.79,336.79,0,0,1,390,124.13a286.13,286.13,0,0,1-33.65,1.05c-8.89-.16-17.74-1.68-26.63-2.26-7.83-.51-15.69-.57-23.53-.78a262.61,262.61,0,0,0-39.14,2.25c-16,2-31.65,5.76-47.32,9.44a319.49,319.49,0,0,0-60.23,20.44c-20.15,9.22-38.85,20.82-56.8,33.78-16.14,11.66-31.48,24.21-45.38,38.48C53,231,48.88,235.62,44.28,240.57Z" transform="translate(0 -15.95)"/><path d="M0,474.08c1-102,41.68-184.54,121.22-248.16l.68.31c-2.24,6.19-4.51,12.38-6.7,18.59-1.32,3.74-2.55,7.52-3.75,11.3-1.67,5.24-3.33,10.48-4.9,15.75-2.4,8.11-4.83,16.21-7,24.37q-3.61,13.39-6.82,26.89c-1.52,6.39-2.77,12.84-4,19.29-1.5,8-2.94,15.95-4.23,23.95-.77,4.85-1.23,9.75-1.76,14.63-.74,6.91-1.94,13.84-1.92,20.75,0,4.32-2.12,5.85-5.07,7.94q-12.86,9.12-25.24,18.91c-8.55,6.77-17.06,13.64-25.16,20.93-6.91,6.23-13.24,13.1-19.79,19.72-1.65,1.68-3.15,3.51-4.72,5.27Z" transform="translate(0 -15.95)"/><path d="M2.27,501.55c5.52,3.73,11,7.6,16.58,11.16,9.07,5.76,18.08,11.65,27.46,16.88,10.1,5.63,20.59,10.6,30.93,15.81,2.73,1.37,5.62,2.44,8.3,3.9a4.56,4.56,0,0,1,2,2.7c2.31,10.61,4.31,21.28,6.73,31.87Q99.39,606.1,105,628.21c2.86,11.25,5.89,22.47,9.31,33.55,5,16.35,10.5,32.58,15.83,48.84,1.3,4,2.82,7.85,4,11.93Q19.33,641.26,1.68,501.89Z" transform="translate(0 -15.95)"/></svg>